<?xml version="1.0" encoding="UTF-8" standalone="no"?>
<!DOCTYPE svg PUBLIC "-//W3C//DTD SVG 1.1//EN"
 "http://www.w3.org/Graphics/SVG/1.1/DTD/svg11.dtd">
<!-- Generated by graphviz version 2.43.0 (0)
 -->
<!-- Title: G Pages: 1 -->
<svg width="1562pt" height="476pt"
 viewBox="0.00 0.00 1562.00 476.00" xmlns="http://www.w3.org/2000/svg" xmlns:xlink="http://www.w3.org/1999/xlink">
<g id="graph0" class="graph" transform="scale(1 1) rotate(0) translate(4 472)">
<title>G</title>
<polygon fill="white" stroke="transparent" points="-4,4 -4,-472 1558,-472 1558,4 -4,4"/>
<!-- data.aws_iam_policy_document.allow_access_to_s3 -->
<g id="node1" class="node">
<title>data.aws_iam_policy_document.allow_access_to_s3</title>
<polygon fill="none" stroke="black" points="1183,-90 812,-90 812,-54 1183,-54 1183,-90"/>
<text text-anchor="middle" x="997.5" y="-68.3" font-family="sans-serif" font-size="14.00">data.aws_iam_policy_document.allow_access_to_s3</text>
</g>
<!-- aws_cloudfront_distribution.website_cf -->
<g id="node5" class="node">
<title>aws_cloudfront_distribution.website_cf</title>
<polygon fill="none" stroke="black" points="699.5,-144 415.5,-144 415.5,-108 699.5,-108 699.5,-144"/>
<text text-anchor="middle" x="557.5" y="-122.3" font-family="sans-serif" font-size="14.00">aws_cloudfront_distribution.website_cf</text>
</g>
<!-- data.aws_iam_policy_document.allow_access_to_s3&#45;&gt;aws_cloudfront_distribution.website_cf -->
<g id="edge1" class="edge">
<title>data.aws_iam_policy_document.allow_access_to_s3&#45;&gt;aws_cloudfront_distribution.website_cf</title>
<path fill="none" stroke="black" d="M850.35,-90.02C805.15,-95.59 755.29,-101.74 709.75,-107.35"/>
<polygon fill="black" stroke="black" points="709.3,-103.88 699.81,-108.58 710.16,-110.83 709.3,-103.88"/>
</g>
<!-- data.aws_iam_policy_document.sns_publish -->
<g id="node2" class="node">
<title>data.aws_iam_policy_document.sns_publish</title>
<polygon fill="none" stroke="black" points="1158,-306 837,-306 837,-270 1158,-270 1158,-306"/>
<text text-anchor="middle" x="997.5" y="-284.3" font-family="sans-serif" font-size="14.00">data.aws_iam_policy_document.sns_publish</text>
</g>
<!-- aws_sns_topic.guardduty_alerts -->
<g id="node18" class="node">
<title>aws_sns_topic.guardduty_alerts</title>
<polygon fill="none" stroke="black" points="676,-360 439,-360 439,-324 676,-324 676,-360"/>
<text text-anchor="middle" x="557.5" y="-338.3" font-family="sans-serif" font-size="14.00">aws_sns_topic.guardduty_alerts</text>
</g>
<!-- data.aws_iam_policy_document.sns_publish&#45;&gt;aws_sns_topic.guardduty_alerts -->
<g id="edge2" class="edge">
<title>data.aws_iam_policy_document.sns_publish&#45;&gt;aws_sns_topic.guardduty_alerts</title>
<path fill="none" stroke="black" d="M850.35,-306.02C797.29,-312.56 737.79,-319.9 686.43,-326.23"/>
<polygon fill="black" stroke="black" points="685.76,-322.78 676.27,-327.48 686.62,-329.73 685.76,-322.78"/>
</g>
<!-- aws_acm_certificate.web_cert -->
<g id="node3" class="node">
<title>aws_acm_certificate.web_cert</title>
<polygon fill="none" stroke="black" points="262.5,-221 40.5,-221 40.5,-185 262.5,-185 262.5,-221"/>
<text text-anchor="middle" x="151.5" y="-199.3" font-family="sans-serif" font-size="14.00">aws_acm_certificate.web_cert</text>
</g>
<!-- aws_acm_certificate_validation.cert_validation -->
<g id="node4" class="node">
<title>aws_acm_certificate_validation.cert_validation</title>
<polygon fill="none" stroke="black" points="1554,-252 1219,-252 1219,-216 1554,-216 1554,-252"/>
<text text-anchor="middle" x="1386.5" y="-230.3" font-family="sans-serif" font-size="14.00">aws_acm_certificate_validation.cert_validation</text>
</g>
<!-- aws_route53_record.domain_validate -->
<g id="node11" class="node">
<title>aws_route53_record.domain_validate</title>
<polygon fill="none" stroke="black" points="1133.5,-252 861.5,-252 861.5,-216 1133.5,-216 1133.5,-252"/>
<text text-anchor="middle" x="997.5" y="-230.3" font-family="sans-serif" font-size="14.00">aws_route53_record.domain_validate</text>
</g>
<!-- aws_acm_certificate_validation.cert_validation&#45;&gt;aws_route53_record.domain_validate -->
<g id="edge3" class="edge">
<title>aws_acm_certificate_validation.cert_validation&#45;&gt;aws_route53_record.domain_validate</title>
<path fill="none" stroke="black" d="M1218.85,-234C1193.84,-234 1168.22,-234 1143.7,-234"/>
<polygon fill="black" stroke="black" points="1143.64,-230.5 1133.64,-234 1143.64,-237.5 1143.64,-230.5"/>
</g>
<!-- aws_cloudfront_distribution.website_cf&#45;&gt;aws_acm_certificate.web_cert -->
<g id="edge4" class="edge">
<title>aws_cloudfront_distribution.website_cf&#45;&gt;aws_acm_certificate.web_cert</title>
<path fill="none" stroke="black" d="M415.36,-140.63C389.84,-144.1 363.55,-148.21 339,-153 299.6,-160.69 256.26,-172.12 221.28,-182.12"/>
<polygon fill="black" stroke="black" points="220.28,-178.76 211.64,-184.89 222.22,-185.49 220.28,-178.76"/>
</g>
<!-- aws_cloudfront_origin_access_control.oac -->
<g id="node6" class="node">
<title>aws_cloudfront_origin_access_control.oac</title>
<polygon fill="none" stroke="black" points="303,-144 0,-144 0,-108 303,-108 303,-144"/>
<text text-anchor="middle" x="151.5" y="-122.3" font-family="sans-serif" font-size="14.00">aws_cloudfront_origin_access_control.oac</text>
</g>
<!-- aws_cloudfront_distribution.website_cf&#45;&gt;aws_cloudfront_origin_access_control.oac -->
<g id="edge5" class="edge">
<title>aws_cloudfront_distribution.website_cf&#45;&gt;aws_cloudfront_origin_access_control.oac</title>
<path fill="none" stroke="black" d="M415.48,-126C382.58,-126 347.29,-126 313.59,-126"/>
<polygon fill="black" stroke="black" points="313.19,-122.5 303.19,-126 313.19,-129.5 313.19,-122.5"/>
</g>
<!-- aws_s3_bucket.web_bucket -->
<g id="node13" class="node">
<title>aws_s3_bucket.web_bucket</title>
<polygon fill="none" stroke="black" points="254.5,-90 48.5,-90 48.5,-54 254.5,-54 254.5,-90"/>
<text text-anchor="middle" x="151.5" y="-68.3" font-family="sans-serif" font-size="14.00">aws_s3_bucket.web_bucket</text>
</g>
<!-- aws_cloudfront_distribution.website_cf&#45;&gt;aws_s3_bucket.web_bucket -->
<g id="edge6" class="edge">
<title>aws_cloudfront_distribution.website_cf&#45;&gt;aws_s3_bucket.web_bucket</title>
<path fill="none" stroke="black" d="M415.46,-108.91C390,-105.71 363.7,-102.32 339,-99 314.92,-95.76 289.11,-92.13 264.61,-88.61"/>
<polygon fill="black" stroke="black" points="264.96,-85.12 254.57,-87.16 263.96,-92.05 264.96,-85.12"/>
</g>
<!-- aws_cloudwatch_event_rule.guardduty_finding -->
<g id="node7" class="node">
<title>aws_cloudwatch_event_rule.guardduty_finding</title>
<polygon fill="none" stroke="black" points="728,-414 387,-414 387,-378 728,-378 728,-414"/>
<text text-anchor="middle" x="557.5" y="-392.3" font-family="sans-serif" font-size="14.00">aws_cloudwatch_event_rule.guardduty_finding</text>
</g>
<!-- aws_cloudwatch_event_target.send_to_sns -->
<g id="node8" class="node">
<title>aws_cloudwatch_event_target.send_to_sns</title>
<polygon fill="none" stroke="black" points="1153.5,-414 841.5,-414 841.5,-378 1153.5,-378 1153.5,-414"/>
<text text-anchor="middle" x="997.5" y="-392.3" font-family="sans-serif" font-size="14.00">aws_cloudwatch_event_target.send_to_sns</text>
</g>
<!-- aws_cloudwatch_event_target.send_to_sns&#45;&gt;aws_cloudwatch_event_rule.guardduty_finding -->
<g id="edge7" class="edge">
<title>aws_cloudwatch_event_target.send_to_sns&#45;&gt;aws_cloudwatch_event_rule.guardduty_finding</title>
<path fill="none" stroke="black" d="M841.46,-396C808.09,-396 772.54,-396 738.32,-396"/>
<polygon fill="black" stroke="black" points="738.22,-392.5 728.22,-396 738.22,-399.5 738.22,-392.5"/>
</g>
<!-- aws_cloudwatch_event_target.send_to_sns&#45;&gt;aws_sns_topic.guardduty_alerts -->
<g id="edge8" class="edge">
<title>aws_cloudwatch_event_target.send_to_sns&#45;&gt;aws_sns_topic.guardduty_alerts</title>
<path fill="none" stroke="black" d="M850.35,-377.98C797.29,-371.44 737.79,-364.1 686.43,-357.77"/>
<polygon fill="black" stroke="black" points="686.62,-354.27 676.27,-356.52 685.76,-361.22 686.62,-354.27"/>
</g>
<!-- aws_guardduty_detector.act_detector -->
<g id="node9" class="node">
<title>aws_guardduty_detector.act_detector</title>
<polygon fill="none" stroke="black" points="1524,-414 1249,-414 1249,-378 1524,-378 1524,-414"/>
<text text-anchor="middle" x="1386.5" y="-392.3" font-family="sans-serif" font-size="14.00">aws_guardduty_detector.act_detector</text>
</g>
<!-- aws_route53_record.cf_distro -->
<g id="node10" class="node">
<title>aws_route53_record.cf_distro</title>
<polygon fill="none" stroke="black" points="1106.5,-144 888.5,-144 888.5,-108 1106.5,-108 1106.5,-144"/>
<text text-anchor="middle" x="997.5" y="-122.3" font-family="sans-serif" font-size="14.00">aws_route53_record.cf_distro</text>
</g>
<!-- aws_route53_record.cf_distro&#45;&gt;aws_cloudfront_distribution.website_cf -->
<g id="edge9" class="edge">
<title>aws_route53_record.cf_distro&#45;&gt;aws_cloudfront_distribution.website_cf</title>
<path fill="none" stroke="black" d="M888.23,-126C834.47,-126 768.62,-126 709.95,-126"/>
<polygon fill="black" stroke="black" points="709.84,-122.5 699.84,-126 709.84,-129.5 709.84,-122.5"/>
</g>
<!-- aws_route53_zone.route53_domain -->
<g id="node12" class="node">
<title>aws_route53_zone.route53_domain</title>
<polygon fill="none" stroke="black" points="688,-198 427,-198 427,-162 688,-162 688,-198"/>
<text text-anchor="middle" x="557.5" y="-176.3" font-family="sans-serif" font-size="14.00">aws_route53_zone.route53_domain</text>
</g>
<!-- aws_route53_record.cf_distro&#45;&gt;aws_route53_zone.route53_domain -->
<g id="edge10" class="edge">
<title>aws_route53_record.cf_distro&#45;&gt;aws_route53_zone.route53_domain</title>
<path fill="none" stroke="black" d="M888.23,-139.35C830.88,-146.42 759.78,-155.19 698.3,-162.76"/>
<polygon fill="black" stroke="black" points="697.62,-159.32 688.12,-164.02 698.48,-166.27 697.62,-159.32"/>
</g>
<!-- aws_route53_record.domain_validate&#45;&gt;aws_acm_certificate.web_cert -->
<g id="edge11" class="edge">
<title>aws_route53_record.domain_validate&#45;&gt;aws_acm_certificate.web_cert</title>
<path fill="none" stroke="black" d="M861.36,-229.04C698.8,-223.07 428.39,-213.13 272.76,-207.42"/>
<polygon fill="black" stroke="black" points="272.8,-203.92 262.68,-207.05 272.54,-210.91 272.8,-203.92"/>
</g>
<!-- aws_route53_record.domain_validate&#45;&gt;aws_route53_zone.route53_domain -->
<g id="edge12" class="edge">
<title>aws_route53_record.domain_validate&#45;&gt;aws_route53_zone.route53_domain</title>
<path fill="none" stroke="black" d="M861.21,-217.32C809.51,-210.95 750.48,-203.67 698.36,-197.24"/>
<polygon fill="black" stroke="black" points="698.72,-193.76 688.37,-196.01 697.87,-200.71 698.72,-193.76"/>
</g>
<!-- aws_s3_bucket_policy.cf_policy -->
<g id="node14" class="node">
<title>aws_s3_bucket_policy.cf_policy</title>
<polygon fill="none" stroke="black" points="1501.5,-90 1271.5,-90 1271.5,-54 1501.5,-54 1501.5,-90"/>
<text text-anchor="middle" x="1386.5" y="-68.3" font-family="sans-serif" font-size="14.00">aws_s3_bucket_policy.cf_policy</text>
</g>
<!-- aws_s3_bucket_policy.cf_policy&#45;&gt;data.aws_iam_policy_document.allow_access_to_s3 -->
<g id="edge13" class="edge">
<title>aws_s3_bucket_policy.cf_policy&#45;&gt;data.aws_iam_policy_document.allow_access_to_s3</title>
<path fill="none" stroke="black" d="M1271.48,-72C1246.87,-72 1220.18,-72 1193.45,-72"/>
<polygon fill="black" stroke="black" points="1193.21,-68.5 1183.21,-72 1193.21,-75.5 1193.21,-68.5"/>
</g>
<!-- aws_s3_bucket_server_side_encryption_configuration.s3_sse -->
<g id="node15" class="node">
<title>aws_s3_bucket_server_side_encryption_configuration.s3_sse</title>
<polygon fill="none" stroke="black" points="776,-36 339,-36 339,0 776,0 776,-36"/>
<text text-anchor="middle" x="557.5" y="-14.3" font-family="sans-serif" font-size="14.00">aws_s3_bucket_server_side_encryption_configuration.s3_sse</text>
</g>
<!-- aws_s3_bucket_server_side_encryption_configuration.s3_sse&#45;&gt;aws_s3_bucket.web_bucket -->
<g id="edge14" class="edge">
<title>aws_s3_bucket_server_side_encryption_configuration.s3_sse&#45;&gt;aws_s3_bucket.web_bucket</title>
<path fill="none" stroke="black" d="M408.15,-36.01C385,-38.94 361.34,-42 339,-45 314.92,-48.24 289.11,-51.87 264.61,-55.39"/>
<polygon fill="black" stroke="black" points="263.96,-51.95 254.57,-56.84 264.96,-58.88 263.96,-51.95"/>
</g>
<!-- aws_s3_bucket_versioning.s3_ver -->
<g id="node16" class="node">
<title>aws_s3_bucket_versioning.s3_ver</title>
<polygon fill="none" stroke="black" points="682.5,-90 432.5,-90 432.5,-54 682.5,-54 682.5,-90"/>
<text text-anchor="middle" x="557.5" y="-68.3" font-family="sans-serif" font-size="14.00">aws_s3_bucket_versioning.s3_ver</text>
</g>
<!-- aws_s3_bucket_versioning.s3_ver&#45;&gt;aws_s3_bucket.web_bucket -->
<g id="edge15" class="edge">
<title>aws_s3_bucket_versioning.s3_ver&#45;&gt;aws_s3_bucket.web_bucket</title>
<path fill="none" stroke="black" d="M432.27,-72C378.89,-72 316.97,-72 264.97,-72"/>
<polygon fill="black" stroke="black" points="264.71,-68.5 254.71,-72 264.71,-75.5 264.71,-68.5"/>
</g>
<!-- aws_s3_object.file_upload -->
<g id="node17" class="node">
<title>aws_s3_object.file_upload</title>
<polygon fill="none" stroke="black" points="1484,-468 1289,-468 1289,-432 1484,-432 1484,-468"/>
<text text-anchor="middle" x="1386.5" y="-446.3" font-family="sans-serif" font-size="14.00">aws_s3_object.file_upload</text>
</g>
<!-- aws_sns_topic_policy.sns_policy -->
<g id="node19" class="node">
<title>aws_sns_topic_policy.sns_policy</title>
<polygon fill="none" stroke="black" points="1504.5,-306 1268.5,-306 1268.5,-270 1504.5,-270 1504.5,-306"/>
<text text-anchor="middle" x="1386.5" y="-284.3" font-family="sans-serif" font-size="14.00">aws_sns_topic_policy.sns_policy</text>
</g>
<!-- aws_sns_topic_policy.sns_policy&#45;&gt;data.aws_iam_policy_document.sns_publish -->
<g id="edge16" class="edge">
<title>aws_sns_topic_policy.sns_policy&#45;&gt;data.aws_iam_policy_document.sns_publish</title>
<path fill="none" stroke="black" d="M1268.34,-288C1236.89,-288 1202.23,-288 1168.54,-288"/>
<polygon fill="black" stroke="black" points="1168.12,-284.5 1158.12,-288 1168.12,-291.5 1168.12,-284.5"/>
</g>
<!-- aws_sns_topic_subscription.gduty_sub -->
<g id="node20" class="node">
<title>aws_sns_topic_subscription.gduty_sub</title>
<polygon fill="none" stroke="black" points="1139.5,-360 855.5,-360 855.5,-324 1139.5,-324 1139.5,-360"/>
<text text-anchor="middle" x="997.5" y="-338.3" font-family="sans-serif" font-size="14.00">aws_sns_topic_subscription.gduty_sub</text>
</g>
<!-- aws_sns_topic_subscription.gduty_sub&#45;&gt;aws_sns_topic.guardduty_alerts -->
<g id="edge17" class="edge">
<title>aws_sns_topic_subscription.gduty_sub&#45;&gt;aws_sns_topic.guardduty_alerts</title>
<path fill="none" stroke="black" d="M855.2,-342C800.95,-342 739.38,-342 686.45,-342"/>
<polygon fill="black" stroke="black" points="686.33,-338.5 676.33,-342 686.33,-345.5 686.33,-338.5"/>
</g>
<!-- null_resource.notify_subscription -->
<g id="node21" class="node">
<title>null_resource.notify_subscription</title>
<polygon fill="none" stroke="black" points="1508.5,-360 1264.5,-360 1264.5,-324 1508.5,-324 1508.5,-360"/>
<text text-anchor="middle" x="1386.5" y="-338.3" font-family="sans-serif" font-size="14.00">null_resource.notify_subscription</text>
</g>
<!-- null_resource.notify_subscription&#45;&gt;aws_sns_topic_subscription.gduty_sub -->
<g id="edge18" class="edge">
<title>null_resource.notify_subscription&#45;&gt;aws_sns_topic_subscription.gduty_sub</title>
<path fill="none" stroke="black" d="M1264.38,-342C1228.05,-342 1187.74,-342 1149.72,-342"/>
<polygon fill="black" stroke="black" points="1149.59,-338.5 1139.59,-342 1149.59,-345.5 1149.59,-338.5"/>
</g>
<!-- null_resource.show_ns_servers -->
<g id="node22" class="node">
<title>null_resource.show_ns_servers</title>
<polygon fill="none" stroke="black" points="1112.5,-198 882.5,-198 882.5,-162 1112.5,-162 1112.5,-198"/>
<text text-anchor="middle" x="997.5" y="-176.3" font-family="sans-serif" font-size="14.00">null_resource.show_ns_servers</text>
</g>
<!-- null_resource.show_ns_servers&#45;&gt;aws_route53_zone.route53_domain -->
<g id="edge19" class="edge">
<title>null_resource.show_ns_servers&#45;&gt;aws_route53_zone.route53_domain</title>
<path fill="none" stroke="black" d="M882.28,-180C826.09,-180 757.86,-180 698.55,-180"/>
<polygon fill="black" stroke="black" points="698.35,-176.5 688.35,-180 698.35,-183.5 698.35,-176.5"/>
</g>
</g>
</svg>
